{"title":"Break of Hearts (1935) DVDRip.XviD.Clan.rip-filibust","uid":8742009,"size":980871168,"categoryP":"video","categoryS":"movies","magnet":"?xt=urn:btih:079973a10290b17c04be54a3408083b4f6297049&amp;dn=Break+of+Hearts+%281935%29+DVDRip.XviD.Clan.rip-filibust&amp;tr=udp%3A%2F%2Ftracker.openbittorrent.com%3A80&amp;tr=udp%3A%2F%2Fopen.demonii.com%3A1337&amp;tr=udp%3A%2F%2Ftracker.coppersurfer.tk%3A6969&amp;tr=udp%3A%2F%2Fexodus.desync.com%3A6969","seeders":0,"leechers":1,"uploader":null,"files":1,"time":1374813902,"description":"Break of Hearts-Corazones Rotos (Phillip.Moeller.1935).(Spanish.English).DVD-Rip.XviD-mp3.by.Clan.riper-filibust (filibusteros.com)\n\nFormat  : AVI\nFormat/Info  : Audio Video Interleave\nFile size  : 935 MiB\nDuration  : 1h 14mn\nOverall bit rate mode : Variable\nOverall bit rate : 1 754 Kbps\nWriting application : VirtualDubMod 1.5.10.2 (build 2540/release)\nWriting library : VirtualDubMod build 2540/release\n\nVideo\nID  : 0\nFormat  : MPEG-4 Visual\nFormat profile  : Advanced Simple@L5\nFormat settings, BVOP   : 2\nFormat settings, QPel  : No\nFormat settings, GMC   : No warppoints\nFormat settings, Matrix  : Default (H.263)\nCodec ID : XVID\nCodec ID/Hint  : XviD\nDuration  : 1h 14mn\nBit rate  : 1 492 Kbps\nWidth : 640 pixels\nHeight : 480 pixels\nDisplay aspect ratio : 4:3\nFrame rate : 25.000 fps\nColor space: YUV\nChroma subsampling  : 4:2:0\nBit depth  : 8 bits\nScan type: Progressive\nCompression mode : Lossy\nBits/(Pixel*Frame)  : 0.194\nStream size : 795 MiB (85%)\nWriting library: XviD 1.1.2 (UTC 2006-11-01)\n\nAudio #1\nID  : 1\nFormat   : MPEG Audio\nFormat version  : Version 1\nFormat profile : Layer 3\nMode   : Joint stereo\nMode extension   : MS Stereo\nCodec ID   : 55\nCodec ID/Hint   : MP3\nDuration  : 1h 14mn\nBit rate mode  : Variable\nBit rate : 128 Kbps\nChannel(s)    : 2 channels\nSampling rate  : 48.0 KHz\nCompression mode : Lossy\nStream size  : 66.0 MiB (7%)\nAlignment : Aligned on interleaves\nInterleave, duration   : 24 ms (0.60 video frame)\nInterleave, preload duration   : 521 ms\nWriting library : LAME3.90.\nEncoding settings  : -m j -V 4 -q 2 -lowpass 17.6 --abr 128\n\nAudio #2\nID : 2\nFormat  : MPEG Audio\nFormat version  : Version 1\nFormat profile  : Layer 3\nMode : Joint stereo\nMode extension   : MS Stereo\nCodec ID  : 55\nCodec ID/Hint  : MP3\nDuration  : 1h 14mn\nBit rate mode : Variable\nBit rate  : 118 Kbps\nNominal bit rate  : 128 Kbps\nChannel(s)  : 2 channels\nSampling rate  : 48.0 KHz\nCompression mode  : Lossy\nStream size  : 62.8 MiB (7%)\nAlignment  : Aligned on interleaves\nInterleave, duration  : 24 ms (0.60 video frame)\nInterleave, preload duration  : 465 ms\nWriting library  : LAME3.90.\nEncoding settings: -m j -V 4 -q 2 -lowpass 17.6 --abr 128\n","torrent":{"xt":"urn:btih:079973a10290b17c04be54a3408083b4f6297049","amp;dn":"Break+of+Hearts+%281935%29+DVDRip.XviD.Clan.rip-filibust","amp;tr":["udp%3A%2F%2Ftracker.openbittorrent.com%3A80","udp%3A%2F%2Fopen.demonii.com%3A1337","udp%3A%2F%2Ftracker.coppersurfer.tk%3A6969","udp%3A%2F%2Fexodus.desync.com%3A6969"],"infoHash":"079973a10290b17c04be54a3408083b4f6297049","infoHashBuffer":{"type":"Buffer","data":[7,153,115,161,2,144,177,124,4,190,84,163,64,128,131,180,246,41,112,73]},"announce":[],"urlList":[]}}